<svg width="24" height="24" fill="none" xmlns="http://www.w3.org/2000/svg">
	<path fill-rule="evenodd" clip-rule="evenodd"
		d="M18.655 4.988c3.607 6.801 6.797 19.447-5.449 17.54-7.514-1.172-18.858-3.809-9.93-14.673C6.6 3.81 13.489-4.76 18.657 4.988Z"
		fill="#B2B3B3" fill-opacity=".102" />
	<path fill-rule="evenodd" clip-rule="evenodd"
		d="M3.516 13.824c5.203 23.506 25.19-2.624 19.462-7.21-6.153-4.93-23.926-12.945-19.462 7.21Z" fill="#CCC"
		fill-opacity=".102" />
	<path fill-rule="evenodd" clip-rule="evenodd"
		d="M15.22 8.702H8.068L7 14.577 17.5 14.5l.304-2.093L17.5 12l-.365-.216L17 10.388l.265-.41L17 9.5h-1.872l.093-.798Z"
		fill="#fff" />
	<path fill-rule="evenodd" clip-rule="evenodd"
		d="M9.382 14.075c.526-.107.907.234.834.759-.071.396-.435.72-.816.81-.506.11-.905-.233-.814-.757.054-.396.398-.74.796-.812Zm6.216 0c.506-.107.887.253.797.776-.09.38-.418.723-.834.793-.508.11-.887-.253-.796-.776.07-.396.435-.72.833-.793Zm1.867-.813c-.254 0-.418.073-.364-.234.02-.143-.017-.18.127-.18h.308l-.071.414Zm-2.321-2.815h1.668l.09 1.229h-1.976l.218-1.23Zm.146-.793h1.087c.362 0 .724-.054.653.416-.09.017-1.596.017-1.813 0l.073-.416Zm.144-.83c0-.234-.18-.343-.417-.343-1.72-.017-3.497 0-5.217 0-.49 0-1.016-.017-1.505 0a.436.436 0 0 0-.435.306c-.036.18-.598 3.482-.598 3.482 0 .11.09.183.2.183.217-.02.2-.307.235-.506.073-.416.146-.83.217-1.263l.29-1.589c.055-.324-.053-.234.87-.234h5.962c-.127.937-.381 2.183-.562 3.176-.017.163-.073.433.181.416.2-.02.144-.236.218-.4.144-.016 1.321 0 1.575 0 .509 0 1.07-.123 1.144.417-.853 0-.762-.09-.87.523-.037.217.017.416.125.523.127.11.327.144.562.144l-.145.813c-.67.019-.434.036-.615-.307-.381-.723-1.56-.65-2.067.2-.054.07-.054.107-.144.107.019-.253.11-.614.163-.867.037-.233.198-.74-.11-.74-.18 0-.18.146-.217.307-.017.146-.034.29-.071.433-.037.27-.09.614-.146.867h-3.478c-.236-.884-1.16-.993-1.795-.54-.108.09-.181.16-.271.252-.326.36.127.288-1.251.288 0-.09.02-.144.036-.234 0-.09 0-.18.054-.18.218 0 .435-.02.652 0 .2 0 .435-.037.328-.273-.054-.16-.328-.126-.508-.126H6.538c-.18 0-.454-.034-.544.092-.037.09-.018.197.036.25.073.057.181.057.271.057.2-.02.418-.02.636-.02.017.18-.235.67.18.796.235.07.816-.037 1.088.017l-.018.144c-.019.722.58 1.173 1.305 1.029.543-.127 1.014-.613 1.105-1.173h3.787v.144c-.037.703.579 1.173 1.285 1.029.525-.127 1.034-.596 1.107-1.173h.633c.217-.017.2-.2.236-.397.072-.362.128-.722.199-1.065.056-.307.183-.81.09-1.1-.09-.343-.308-.506-.652-.596l-.071-1.227c.107-.053.144-.053.18-.18.018-.09.037-.216.037-.306 0-.416-.29-.687-.689-.706-.452-.017-.924 0-1.378 0l.073-.45Z"
		fill="#000" />
	<path fill-rule="evenodd" clip-rule="evenodd"
		d="M13.116 12.072c-.381.018-.853 0-1.251 0H8.693c-.198 0-.452-.053-.506.127-.036.107.018.197.09.216.072.054.78.037.907.037h2.537c.398 0 .87-.02 1.268 0-.09.107-.362.216-.435.324-.037.09-.02.199.073.236.108.09.198.017.271-.037a3.6 3.6 0 0 1 .452-.29c.272-.18.635-.343.418-.56l-.508-.432c-.108-.09-.198-.234-.345-.217-.09 0-.18.11-.163.217.02.11.092.143.163.2.074.07.127.106.2.18Z"
		fill="red" />
	<path fill-rule="evenodd" clip-rule="evenodd"
		d="M14.926 11.675h1.977l-.09-1.228h-1.67l-.217 1.229ZM15.508 14.49a.364.364 0 0 1 .469.288.454.454 0 0 1-.325.452c-.489.127-.67-.578-.144-.74Zm.09-.415c-.398.073-.762.397-.833.793-.09.523.288.886.796.776.416-.07.743-.414.834-.793.09-.523-.291-.883-.797-.776ZM9.31 14.49c.236-.072.434.072.47.271.037.234-.126.414-.307.47-.489.143-.69-.597-.164-.74Zm.072-.415c-.398.073-.742.416-.796.813-.09.523.308.866.814.756.38-.09.745-.413.816-.81.073-.525-.308-.866-.834-.76Z"
		fill="#fff" />
	<path fill-rule="evenodd" clip-rule="evenodd"
		d="M6.665 12.885c-.163.034-.2.216-.09.324.09.072.342.036.489.036.344 0 3.061.017 3.17 0 .128-.036.162-.234.055-.326-.09-.07-.327-.053-.472-.053-.344 0-3.061-.018-3.152.019ZM11.195 14.038h2.336c.274 0 .29-.36-.017-.36h.017-2.319c-.325 0-.29.36-.017.36Z"
		fill="#000" />
	<path fill-rule="evenodd" clip-rule="evenodd"
		d="M15.217 10.07c.217.017 1.722.017 1.813 0 .07-.47-.29-.416-.653-.416H15.29l-.073.415Z" fill="#fff" />
	<path fill-rule="evenodd" clip-rule="evenodd"
		d="M9.31 14.49c-.526.144-.326.884.163.74.18-.055.344-.235.308-.469-.037-.2-.235-.343-.472-.27ZM15.508 14.49c-.526.162-.345.867.144.74a.455.455 0 0 0 .325-.452.364.364 0 0 0-.47-.287Z"
		fill="#000" />
	<path fill-rule="evenodd" clip-rule="evenodd"
		d="m17.465 13.262.07-.414h-.307c-.144 0-.108.037-.127.18-.054.307.11.234.364.234Z" fill="#fff" />
	<path
		d="M3.95 12.012a.24.24 0 1 1 0-.48v.48Zm2.51 0H3.95v-.48h2.51v.48Zm0-.48c.134 0 .244.11.244.24 0 .133-.11.24-.243.24v-.48ZM5.283 14.08a.242.242 0 0 1 0-.482v.481Zm2.913 0H5.283v-.483h2.913v.482Zm0-.483a.242.242 0 0 1 0 .482v-.482ZM5.615 10.812a.242.242 0 0 1-.241-.24c0-.134.11-.24.24-.24v.48Zm3.496 0H5.615v-.48H9.11v.48Zm0-.48a.24.24 0 1 1 0 .48v-.48Z"
		fill="red" />
</svg>