<svg width="24" height="24" fill="none" xmlns="http://www.w3.org/2000/svg">
	<path
		d="M12 20a1 1 0 0 1-.7-.3l-2-1.7a38 38 0 0 1-4.5-4.2A6.7 6.7 0 0 1 3 9.4c0-1.5.5-2.8 1.4-3.8C5.4 4.6 6.6 4 8 4c1 0 2 .3 2.9 1 .4.3.8.7 1.1 1.2.3-.5.7-.9 1.1-1.2a4.8 4.8 0 0 1 6.4.6c1 1 1.5 2.3 1.5 3.8s-.6 3-1.8 4.4a38 38 0 0 1-4.5 4.2l-2 1.7a1 1 0 0 1-.7.3ZM8 5c-1 0-2 .5-2.8 1.3-.7.8-1.1 1.9-1.1 3.1 0 1.3.4 2.4 1.5 3.7 1 1.3 2.6 2.6 4.3 4L12 19l2-1.8c1.8-1.5 3.4-2.8 4.4-4 1-1.4 1.5-2.5 1.5-3.8 0-1.2-.4-2.3-1.1-3.1A3.8 3.8 0 0 0 16 5c-.8 0-1.6.3-2.2.8-.6.5-1 1-1.2 1.4-.1.2-.4.3-.6.3a.7.7 0 0 1-.6-.3c-.2-.4-.6-1-1.2-1.4C9.6 5.3 8.8 5 8 5Z"
		fill="currentColor" />
</svg>