<svg width="24" height="24" fill="none" xmlns="http://www.w3.org/2000/svg">
	<path
		d="M15.143 4.5H8.857A4.362 4.362 0 0 0 4.5 8.857v6.286A4.362 4.362 0 0 0 8.857 19.5h6.286a4.362 4.362 0 0 0 4.357-4.357V8.857A4.362 4.362 0 0 0 15.143 4.5Zm3.185 10.643a3.189 3.189 0 0 1-3.185 3.185H8.857a3.19 3.19 0 0 1-3.185-3.185V8.857a3.19 3.19 0 0 1 3.185-3.185h6.286a3.189 3.189 0 0 1 3.185 3.185v6.286Z"
		fill="currentColor" />
	<path
		d="M12 7.957A4.048 4.048 0 0 0 7.957 12 4.048 4.048 0 0 0 12 16.043 4.048 4.048 0 0 0 16.043 12 4.048 4.048 0 0 0 12 7.957Zm0 6.914A2.875 2.875 0 0 1 9.129 12 2.875 2.875 0 0 1 12 9.129a2.874 2.874 0 0 1 2.871 2.87A2.874 2.874 0 0 1 12 14.872ZM16.102 8.485a.586.586 0 1 0 0-1.173.586.586 0 0 0 0 1.173Z"
		fill="currentColor" />
</svg>