<svg width="24" height="24" fill="none" xmlns="http://www.w3.org/2000/svg">
	<path
		d="M15.789 4c1.397 0 2.733.595 3.71 1.645C20.461 6.68 21 8.075 21 9.527c0 1.45-.538 2.846-1.554 3.933l-6.766 6.273a1 1 0 01-1.36 0L4.5 13.408c-2.001-2.151-2.001-5.612 0-7.763 2.04-2.193 5.38-2.193 7.42 0L12 5.73l.079-.085C13.056 4.595 14.39 4 15.789 4zm0 2c-.836 0-1.643.36-2.246 1.007l-.811.872a1 1 0 01-1.464 0l-.812-.872c-1.249-1.342-3.242-1.342-4.49 0-1.288 1.384-1.288 3.655-.053 4.987L12 17.637l6.034-5.591c.616-.662.966-1.57.966-2.52s-.35-1.857-.966-2.519C17.432 6.36 16.624 6 15.79 6z"
		fill="currentColor" fill-rule="evenodd" />
</svg>