<svg width="24" height="24" fill="none" xmlns="http://www.w3.org/2000/svg">
	<path
		d="m9.058 12.583 1.644 1.777c.692.737 1.774.737 2.466 0l1.731-1.82 4.976 5.33c-.216.087-.433.13-.649.13H4.774c-.216 0-.433-.043-.649-.13l4.933-5.287ZM20.827 6.127c.086.26.173.476.173.78v9.23c0 .303-.087.65-.26.91l-5.019-5.417 5.106-5.503Z"
		fill="currentColor" />
	<path
		d="M4.774 5h14.452c.303 0 .563.087.822.217l-7.702 8.233a.53.53 0 0 1-.822 0L3.865 5.26c.26-.173.563-.26.909-.26ZM3.13 6.213l5.106 5.504-4.976 5.33a1.707 1.707 0 0 1-.26-.91v-9.23c0-.26.043-.477.13-.694Z"
		fill="currentColor" />
</svg>