<svg width="24" height="24" fill="none" xmlns="http://www.w3.org/2000/svg">
	<path fill-rule="evenodd" clip-rule="evenodd"
		d="M12.5 7.7c1.403 0 2.536 1.122 2.536 2.51 0 1.443-1.133 2.564-2.536 2.564s-2.536-1.121-2.536-2.563c0-1.389 1.133-2.51 2.536-2.51Zm-.216 13.086-.54-.427-.593-.427C9.263 18.543 5.054 15.445 5 10.21c0-.962.216-1.87.594-2.67.377-.909.917-1.657 1.618-2.351A7.374 7.374 0 0 1 9.64 3.588 7.195 7.195 0 0 1 12.5 3c.971 0 1.889.214 2.806.588a7.374 7.374 0 0 1 2.428 1.602c.755.694 1.295 1.442 1.672 2.35.378.801.594 1.71.594 2.67-.054 5.235-4.316 8.333-6.151 9.722l-.594.427L12.5 21l-.216-.214ZM12.5 5.457c-.648 0-1.295.16-1.889.374A5.735 5.735 0 0 0 8.94 6.953c-.486.48-.81.96-1.08 1.495-.215.534-.323 1.122-.377 1.763.054 3.899 3.4 6.41 5.018 7.638 1.619-1.229 4.964-3.74 5.018-7.638a6.04 6.04 0 0 0-.432-1.763c-.215-.534-.54-1.015-1.079-1.495a4.077 4.077 0 0 0-1.619-1.069 4.639 4.639 0 0 0-1.888-.427Z"
		fill="currentColor" />
</svg>