<svg width="24" height="24" fill="none" xmlns="http://www.w3.org/2000/svg">
	<path
		d="M12.7 20.4a16.3 16.3 0 0 1-9.2-9.3c-.8-2.3-.8-4.8 1-6.7l1-.9c.4-.3.8-.5 1.3-.5.4 0 .9.2 1.3.5l2.7 2.8c.3.3.5.8.5 1.3 0 .4-.2.9-.5 1.2-1.2 1.2-.5 2 .5 3s2.5 2.8 3.8 1.4c.4-.3.8-.5 1.3-.5.4 0 .9.2 1.2.5l2.8 2.8c1 1.1.5 2-.2 2.8-2.2 2.2-4.3 2.8-7.5 1.6Zm5.7-3.1-2-2c-2.8 2.4-4.7.2-6.8-1.8-1.5-1.5-3.2-3.1-.8-6l-2-2-.5.6C5 7.2 5.2 8.8 5.7 10.3a13.9 13.9 0 0 0 7.9 8c2.1.7 3.2.4 4.8-1Z"
		fill="currentColor" />
</svg>