<svg width="24" height="24" fill="none" xmlns="http://www.w3.org/2000/svg">
	<path
		d="m20.3 18.38-.82.82a4.3 4.3 0 0 1-4.06 1.19 14.44 14.44 0 0 1-4.14-1.88 19.67 19.67 0 0 1-5.73-5.66A14.52 14.52 0 0 1 3.71 9.1a4.37 4.37 0 0 1 1.07-4.44l.96-.97a.7.7 0 0 1 .97 0l3.03 3.06a.7.7 0 0 1 0 .97L7.97 9.51a1.46 1.46 0 0 0-.15 1.9c.64.9 1.34 1.72 2.11 2.5.86.88 1.8 1.67 2.8 2.36.58.41 1.37.35 1.86-.15l1.7-1.76a.7.7 0 0 1 .97 0c1.02 1 2.03 2.04 3.03 3.05.28.28.28.71 0 .97Z"
		fill="currentColor" />
</svg>