<svg width="0" height="0" class="hidden">
	<symbol fill="none" xmlns="http://www.w3.org/2000/svg" viewBox="0 0 24 24" id="user">
		<path
			d="M4.003 17.43c0 .457 0 1.001.118 1.437.142.468.615.631 1.159.86.58.228.84.348 1.501.544 1.455.457 3.122.696 4.813.729h.863c1.655-.033 3.286-.272 4.705-.707.615-.196 1.81-.62 2.377-.958a.627.627 0 0 0 .307-.36c.142-.457.154-1.055.154-1.545 0-1.546-.532-2.59-1.785-2.993-.568-.174-.757-.185-1.395-.436-.568-.217-1.147-.5-1.656-.805-.2-.109-.295-.196-.52-.196-.355 0-.52.218-.52.544 0 .272.354.436.555.544.414.218 1.03.545 1.478.719.166.065.237.109.414.163l.426.152c1.076.381 1.939.196 1.939 2.471 0 1.176-.06.969-.875 1.328-.13.065-.236.098-.39.152a17.36 17.36 0 0 1-11.824-.195c-.118-.055-.236-.087-.354-.153-.154-.065-.178-.109-.355-.152 0-.686-.296-1.883.307-2.721.166-.229.343-.36.639-.468.59-.207.827-.207 1.702-.555l.793-.349 1.064-.598c.449-.283.165-.871-.213-.871-.284 0-.296 0-.568.174-.657.383-1.354.704-2.08.958-.852.305-1.798.348-2.354 1.35a3.968 3.968 0 0 0-.425 1.937Z"
			fill="currentColor"></path>
		<path fill-rule="evenodd" clip-rule="evenodd"
			d="M12 11.941c-.582 0-1.024-.128-1.419-.35-1.79-.992-1.93-5.112-.907-6.467 1.175-1.564 3.686-1.319 4.65 0 .383.6.593 1.296.605 2.008.035.77.059.747-.046 1.623a4.695 4.695 0 0 1-.628 1.984 2.365 2.365 0 0 1-.86.864 2.783 2.783 0 0 1-1.396.35v-.012ZM11.766 3h.488c.582.035 1.14.175 1.628.42.465.234.895.56 1.21.97.336.454.534.863.697 1.47a8.67 8.67 0 0 1-.035 3.945c-.29 1.156-.814 2.066-1.79 2.685a4.057 4.057 0 0 1-3.896.023C8.442 11.544 8 9.502 8 7.704c0-.654.07-1.4.22-1.914a4.76 4.76 0 0 1 .478-1.11c.372-.548.779-.933 1.395-1.248A4.288 4.288 0 0 1 11.767 3Z"
			fill="currentColor"></path>
	</symbol>
	<symbol fill="none" xmlns="http://www.w3.org/2000/svg" viewBox="0 0 24 24" id="user2">
		<path
			d="M9.3 14.5c-.8.5-2 1-3.1 1.3a2 2 0 0 0-1.3 1c-.4.4-.4 1-.4 2.4 0 .6.2.7.6.9 3 1.8 9.8 1.9 13.6 0 .6-.2.8-.2.8-.9 0-.6 0-1.4-.2-2a2 2 0 0 0-1.2-1.3c-.6-.2-1.8-.4-3.5-1.4"
			stroke="currentColor" stroke-width="2" stroke-linecap="round" stroke-linejoin="round" />
		<path
			d="M15.5 7c0 .8-.3 2.3-.7 2.8-.7 1-1.3 1.7-2.8 1.7-1.5 0-2-.6-2.7-1.5-.4-.5-.8-2.3-.8-3 0-2.6 1-4.5 3.5-4.5 2.6 0 3.5 2 3.5 4.4Z"
			stroke="currentColor" stroke-width="2" />
	</symbol>
	<symbol xmlns="http://www.w3.org/2000/svg" fill="none" viewBox="0 0 24 24" id="arrow">
		<path stroke="currentColor" stroke-linecap="round" stroke-linejoin="round" stroke-width="2" d="m15 5-7 7 7 7">
		</path>
	</symbol>
	<symbol fill="none" xmlns="http://www.w3.org/2000/svg" viewBox="0 0 24 24" id="burger">
		<path fill-rule="evenodd" clip-rule="evenodd"
			d="M5 6a1.5 1.5 0 1 1-3 0 1.5 1.5 0 0 1 3 0zm4-1a1 1 0 0 0 0 2h12a1 1 0 1 0 0-2H9zm0 6a1 1 0 1 0 0 2h12a1 1 0 1 0 0-2H9zm-1 7a1 1 0 0 1 1-1h6a1 1 0 1 1 0 2H9a1 1 0 0 1-1-1zm-4.5-4.5a1.5 1.5 0 1 0 0-3 1.5 1.5 0 0 0 0 3zM5 18a1.5 1.5 0 1 1-3 0 1.5 1.5 0 0 1 3 0z"
			fill="currentColor"></path>
	</symbol>
	<symbol fill="none" xmlns="http://www.w3.org/2000/svg" viewBox="0 0 24 24" id="close">
		<path
			d="m12 10.59 6.3-6.3a1 1 0 1 1 1.4 1.42L13.42 12l6.3 6.29a1 1 0 1 1-1.42 1.41L12 13.41l-6.3 6.3a1 1 0 0 1-1.4-1.41l6.29-6.3-6.3-6.3a1 1 0 1 1 1.42-1.4L12 10.58z"
			fill="currentColor"></path>
	</symbol>
	<symbol fill="none" xmlns="http://www.w3.org/2000/svg" viewBox="0 0 24 24" id="comparison">
		<path
			d="M5.91 10.23h-2.4V21h2.4V10.23ZM10.87 3h-2.4v18h2.4V3ZM15.53 6.69h-2.4V21h2.4V6.69ZM20.5 15.2h-2.41V21h2.4v-5.8Z"
			fill="currentColor"></path>
	</symbol>
	<symbol fill="none" xmlns="http://www.w3.org/2000/svg" viewBox="0 0 24 24" id="vk">
		<path
			d="M20.904 16.03c-.022-.043-.04-.082-.059-.111-.314-.548-.91-1.222-1.791-2.018l-.019-.018-.01-.01-.008-.008h-.011a11.29 11.29 0 0 1-.759-.75c-.192-.24-.237-.49-.13-.738.075-.187.356-.587.844-1.196.256-.32.46-.58.607-.775 1.08-1.402 1.55-2.295 1.407-2.68l-.056-.094c-.037-.054-.133-.105-.289-.152a1.6 1.6 0 0 0-.6-.021l-2.7.018a.418.418 0 0 0-.19.003 3.367 3.367 0 0 0-.122.03l-.044.02-.037.03a.363.363 0 0 0-.104.097.611.611 0 0 0-.096.158c-.292.735-.625 1.42-.999 2.05-.233.383-.444.707-.64.984a4.63 4.63 0 0 1-.485.61 3.247 3.247 0 0 1-.359.316c-.107.08-.189.112-.24.101-.056-.014-.112-.025-.163-.04a.575.575 0 0 1-.208-.22.971.971 0 0 1-.11-.356 4.408 4.408 0 0 1-.026-.807c.007-.191.007-.317.007-.382 0-.234.007-.483.015-.753.007-.274.018-.49.022-.645.007-.159.011-.324.011-.5 0-.177-.011-.318-.033-.419a1.556 1.556 0 0 0-.097-.288.552.552 0 0 0-.192-.224 1.259 1.259 0 0 0-.315-.122 6.593 6.593 0 0 0-1.269-.119c-1.158-.01-1.906.061-2.239.22-.13.068-.248.158-.355.274-.111.133-.126.209-.045.22.374.054.64.187.796.392l.056.108c.044.08.088.22.133.422.04.198.07.421.081.663.034.447.034.829 0 1.142-.03.317-.059.562-.089.739a1.502 1.502 0 0 1-.24.63.14.14 0 0 1-.045.047.755.755 0 0 1-.251.043c-.089 0-.196-.043-.318-.126a2.435 2.435 0 0 1-.393-.353 4.565 4.565 0 0 1-.451-.623c-.17-.27-.344-.584-.526-.951l-.151-.263c-.093-.17-.219-.418-.382-.743-.162-.328-.31-.641-.433-.947a.604.604 0 0 0-.225-.289l-.045-.028a.787.787 0 0 0-.152-.08 1.077 1.077 0 0 0-.218-.057L3.6 7.459c-.263 0-.44.057-.537.173l-.037.054A.303.303 0 0 0 3 7.833c0 .069.018.148.056.245.373.858.784 1.687 1.22 2.483.441.796.826 1.438 1.152 1.924.325.487.655.948.992 1.38.336.433.558.71.67.829.11.122.195.212.258.274l.234.22c.148.144.37.32.662.526.289.201.61.403.966.601.351.195.762.36 1.232.483a4.29 4.29 0 0 0 1.366.152h1.077c.222-.018.385-.087.5-.202l.036-.044a.797.797 0 0 0 .07-.169.907.907 0 0 0 .034-.252 2.798 2.798 0 0 1 .06-.706c.047-.21.1-.368.158-.476.063-.108.126-.198.2-.27.078-.072.13-.115.163-.133.03-.015.056-.022.074-.03.148-.05.326-.003.53.141.203.144.391.32.573.53.177.209.388.447.64.706a4.2 4.2 0 0 0 .659.584l.185.108c.126.076.288.14.488.205.196.058.374.072.522.044l2.402-.036c.237 0 .422-.04.551-.116.133-.075.211-.158.237-.248a.739.739 0 0 0 .004-.314 1.167 1.167 0 0 0-.067-.241Z"
			fill="currentColor"></path>
	</symbol>
	<symbol fill="none" xmlns="http://www.w3.org/2000/svg" viewBox="0 0 24 24" id="facebook-old">
		<path
			d="M13.904 7.993H15V6.085C14.81 6.059 14.162 6 13.402 6c-1.578 0-2.657.992-2.657 2.819v1.68H9v2.134h1.745V18h2.135v-5.367h1.67l.267-2.134H12.88V9.031c0-.617.167-1.038 1.024-1.038Z"
			fill="currentColor"></path>
	</symbol>
	<symbol fill="none" xmlns="http://www.w3.org/2000/svg" viewBox="0 0 24 24" id="facebook">
		<path
			d="M14.5759 6.58061H16.0579V3.9989C15.8021 3.96359 14.9243 3.88416 13.8966 3.88416C11.7618 3.88416 10.3018 5.22576 10.3018 7.69714V9.96992H7.94208V12.8561H10.3018V20.1158H13.1909V12.8561H15.4492L15.8109 9.96992H13.1909V7.98399C13.1909 7.1499 13.4159 6.58061 14.5759 6.58061Z"
			fill="currentColor" />
	</symbol>
	<symbol fill="none" xmlns="http://www.w3.org/2000/svg" viewBox="0 0 24 24" id="delivery">
		<path fill-rule="evenodd" clip-rule="evenodd"
			d="M18.655 4.988c3.607 6.801 6.797 19.447-5.449 17.54-7.514-1.172-18.858-3.809-9.93-14.673C6.6 3.81 13.489-4.76 18.657 4.988Z"
			fill="#B2B3B3" fill-opacity=".102"></path>
		<path fill-rule="evenodd" clip-rule="evenodd"
			d="M3.516 13.824c5.203 23.506 25.19-2.624 19.462-7.21-6.153-4.93-23.926-12.945-19.462 7.21Z" fill="#CCC"
			fill-opacity=".102"></path>
		<path fill-rule="evenodd" clip-rule="evenodd"
			d="M15.22 8.702H8.068L7 14.577 17.5 14.5l.304-2.093L17.5 12l-.365-.216L17 10.388l.265-.41L17 9.5h-1.872l.093-.798Z"
			fill="#fff"></path>
		<path fill-rule="evenodd" clip-rule="evenodd"
			d="M9.382 14.075c.526-.107.907.234.834.759-.071.396-.435.72-.816.81-.506.11-.905-.233-.814-.757.054-.396.398-.74.796-.812Zm6.216 0c.506-.107.887.253.797.776-.09.38-.418.723-.834.793-.508.11-.887-.253-.796-.776.07-.396.435-.72.833-.793Zm1.867-.813c-.254 0-.418.073-.364-.234.02-.143-.017-.18.127-.18h.308l-.071.414Zm-2.321-2.815h1.668l.09 1.229h-1.976l.218-1.23Zm.146-.793h1.087c.362 0 .724-.054.653.416-.09.017-1.596.017-1.813 0l.073-.416Zm.144-.83c0-.234-.18-.343-.417-.343-1.72-.017-3.497 0-5.217 0-.49 0-1.016-.017-1.505 0a.436.436 0 0 0-.435.306c-.036.18-.598 3.482-.598 3.482 0 .11.09.183.2.183.217-.02.2-.307.235-.506.073-.416.146-.83.217-1.263l.29-1.589c.055-.324-.053-.234.87-.234h5.962c-.127.937-.381 2.183-.562 3.176-.017.163-.073.433.181.416.2-.02.144-.236.218-.4.144-.016 1.321 0 1.575 0 .509 0 1.07-.123 1.144.417-.853 0-.762-.09-.87.523-.037.217.017.416.125.523.127.11.327.144.562.144l-.145.813c-.67.019-.434.036-.615-.307-.381-.723-1.56-.65-2.067.2-.054.07-.054.107-.144.107.019-.253.11-.614.163-.867.037-.233.198-.74-.11-.74-.18 0-.18.146-.217.307-.017.146-.034.29-.071.433-.037.27-.09.614-.146.867h-3.478c-.236-.884-1.16-.993-1.795-.54-.108.09-.181.16-.271.252-.326.36.127.288-1.251.288 0-.09.02-.144.036-.234 0-.09 0-.18.054-.18.218 0 .435-.02.652 0 .2 0 .435-.037.328-.273-.054-.16-.328-.126-.508-.126H6.538c-.18 0-.454-.034-.544.092-.037.09-.018.197.036.25.073.057.181.057.271.057.2-.02.418-.02.636-.02.017.18-.235.67.18.796.235.07.816-.037 1.088.017l-.018.144c-.019.722.58 1.173 1.305 1.029.543-.127 1.014-.613 1.105-1.173h3.787v.144c-.037.703.579 1.173 1.285 1.029.525-.127 1.034-.596 1.107-1.173h.633c.217-.017.2-.2.236-.397.072-.362.128-.722.199-1.065.056-.307.183-.81.09-1.1-.09-.343-.308-.506-.652-.596l-.071-1.227c.107-.053.144-.053.18-.18.018-.09.037-.216.037-.306 0-.416-.29-.687-.689-.706-.452-.017-.924 0-1.378 0l.073-.45Z"
			fill="#000"></path>
		<path fill-rule="evenodd" clip-rule="evenodd"
			d="M13.116 12.072c-.381.018-.853 0-1.251 0H8.693c-.198 0-.452-.053-.506.127-.036.107.018.197.09.216.072.054.78.037.907.037h2.537c.398 0 .87-.02 1.268 0-.09.107-.362.216-.435.324-.037.09-.02.199.073.236.108.09.198.017.271-.037a3.6 3.6 0 0 1 .452-.29c.272-.18.635-.343.418-.56l-.508-.432c-.108-.09-.198-.234-.345-.217-.09 0-.18.11-.163.217.02.11.092.143.163.2.074.07.127.106.2.18Z"
			fill="red"></path>
		<path fill-rule="evenodd" clip-rule="evenodd"
			d="M14.926 11.675h1.977l-.09-1.228h-1.67l-.217 1.229ZM15.508 14.49a.364.364 0 0 1 .469.288.454.454 0 0 1-.325.452c-.489.127-.67-.578-.144-.74Zm.09-.415c-.398.073-.762.397-.833.793-.09.523.288.886.796.776.416-.07.743-.414.834-.793.09-.523-.291-.883-.797-.776ZM9.31 14.49c.236-.072.434.072.47.271.037.234-.126.414-.307.47-.489.143-.69-.597-.164-.74Zm.072-.415c-.398.073-.742.416-.796.813-.09.523.308.866.814.756.38-.09.745-.413.816-.81.073-.525-.308-.866-.834-.76Z"
			fill="#fff"></path>
		<path fill-rule="evenodd" clip-rule="evenodd"
			d="M6.665 12.885c-.163.034-.2.216-.09.324.09.072.342.036.489.036.344 0 3.061.017 3.17 0 .128-.036.162-.234.055-.326-.09-.07-.327-.053-.472-.053-.344 0-3.061-.018-3.152.019ZM11.195 14.038h2.336c.274 0 .29-.36-.017-.36h.017-2.319c-.325 0-.29.36-.017.36Z"
			fill="#000"></path>
		<path fill-rule="evenodd" clip-rule="evenodd"
			d="M15.217 10.07c.217.017 1.722.017 1.813 0 .07-.47-.29-.416-.653-.416H15.29l-.073.415Z" fill="#fff"></path>
		<path fill-rule="evenodd" clip-rule="evenodd"
			d="M9.31 14.49c-.526.144-.326.884.163.74.18-.055.344-.235.308-.469-.037-.2-.235-.343-.472-.27ZM15.508 14.49c-.526.162-.345.867.144.74a.455.455 0 0 0 .325-.452.364.364 0 0 0-.47-.287Z"
			fill="#000"></path>
		<path fill-rule="evenodd" clip-rule="evenodd"
			d="m17.465 13.262.07-.414h-.307c-.144 0-.108.037-.127.18-.054.307.11.234.364.234Z" fill="#fff"></path>
		<path
			d="M3.95 12.012a.24.24 0 1 1 0-.48v.48Zm2.51 0H3.95v-.48h2.51v.48Zm0-.48c.134 0 .244.11.244.24 0 .133-.11.24-.243.24v-.48ZM5.283 14.08a.242.242 0 0 1 0-.482v.481Zm2.913 0H5.283v-.483h2.913v.482Zm0-.483a.242.242 0 0 1 0 .482v-.482ZM5.615 10.812a.242.242 0 0 1-.241-.24c0-.134.11-.24.24-.24v.48Zm3.496 0H5.615v-.48H9.11v.48Zm0-.48a.24.24 0 1 1 0 .48v-.48Z"
			fill="red"></path>
	</symbol>
	<symbol fill="none" xmlns="http://www.w3.org/2000/svg" viewBox="0 0 24 24" id="phone">
		<path
			d="m20.3 18.38-.82.82a4.3 4.3 0 0 1-4.06 1.19 14.44 14.44 0 0 1-4.14-1.88 19.67 19.67 0 0 1-5.73-5.66A14.52 14.52 0 0 1 3.71 9.1a4.37 4.37 0 0 1 1.07-4.44l.96-.97a.7.7 0 0 1 .97 0l3.03 3.06a.7.7 0 0 1 0 .97L7.97 9.51a1.46 1.46 0 0 0-.15 1.9c.64.9 1.34 1.72 2.11 2.5.86.88 1.8 1.67 2.8 2.36.58.41 1.37.35 1.86-.15l1.7-1.76a.7.7 0 0 1 .97 0c1.02 1 2.03 2.04 3.03 3.05.28.28.28.71 0 .97Z"
			fill="currentColor"></path>
	</symbol>
	<symbol fill="none" xmlns="http://www.w3.org/2000/svg" viewBox="0 0 24 24" id="mail">
		<path
			d="m9.058 12.583 1.644 1.777c.692.737 1.774.737 2.466 0l1.731-1.82 4.976 5.33c-.216.087-.433.13-.649.13H4.774c-.216 0-.433-.043-.649-.13l4.933-5.287ZM20.827 6.127c.086.26.173.476.173.78v9.23c0 .303-.087.65-.26.91l-5.019-5.417 5.106-5.503Z"
			fill="currentColor"></path>
		<path
			d="M4.774 5h14.452c.303 0 .563.087.822.217l-7.702 8.233a.53.53 0 0 1-.822 0L3.865 5.26c.26-.173.563-.26.909-.26ZM3.13 6.213l5.106 5.504-4.976 5.33a1.707 1.707 0 0 1-.26-.91v-9.23c0-.26.043-.477.13-.694Z"
			fill="currentColor"></path>
	</symbol>
	<symbol fill="none" xmlns="http://www.w3.org/2000/svg" viewBox="0 0 24 24" id="instagram">
		<path
			d="M15.143 4.5H8.857A4.362 4.362 0 0 0 4.5 8.857v6.286A4.362 4.362 0 0 0 8.857 19.5h6.286a4.362 4.362 0 0 0 4.357-4.357V8.857A4.362 4.362 0 0 0 15.143 4.5Zm3.185 10.643a3.189 3.189 0 0 1-3.185 3.185H8.857a3.19 3.19 0 0 1-3.185-3.185V8.857a3.19 3.19 0 0 1 3.185-3.185h6.286a3.189 3.189 0 0 1 3.185 3.185v6.286Z"
			fill="currentColor"></path>
		<path
			d="M12 7.957A4.048 4.048 0 0 0 7.957 12 4.048 4.048 0 0 0 12 16.043 4.048 4.048 0 0 0 16.043 12 4.048 4.048 0 0 0 12 7.957Zm0 6.914A2.875 2.875 0 0 1 9.129 12 2.875 2.875 0 0 1 12 9.129a2.874 2.874 0 0 1 2.871 2.87A2.874 2.874 0 0 1 12 14.872ZM16.102 8.485a.586.586 0 1 0 0-1.173.586.586 0 0 0 0 1.173Z"
			fill="currentColor"></path>
	</symbol>
	<symbol xmlns="http://www.w3.org/2000/svg" viewBox="0 0 24 24" id="search">
		<path
			d="M11 4a7 7 0 0 1 5.6 11.2.938.938 0 0 1 .107.093l4 4a1 1 0 0 1-1.414 1.414l-4-4a1.009 1.009 0 0 1-.093-.107A7 7 0 1 1 11 4zm0 2a5 5 0 1 0 0 10 5 5 0 0 0 0-10z"
			fill="currentColor" fill-rule="evenodd"></path>
	</symbol>
	<symbol fill="none" xmlns="http://www.w3.org/2000/svg" viewBox="0 0 24 24" id="map">
		<path fill-rule="evenodd" clip-rule="evenodd"
			d="M12.5 7.7c1.403 0 2.536 1.122 2.536 2.51 0 1.443-1.133 2.564-2.536 2.564s-2.536-1.121-2.536-2.563c0-1.389 1.133-2.51 2.536-2.51Zm-.216 13.086-.54-.427-.593-.427C9.263 18.543 5.054 15.445 5 10.21c0-.962.216-1.87.594-2.67.377-.909.917-1.657 1.618-2.351A7.374 7.374 0 0 1 9.64 3.588 7.195 7.195 0 0 1 12.5 3c.971 0 1.889.214 2.806.588a7.374 7.374 0 0 1 2.428 1.602c.755.694 1.295 1.442 1.672 2.35.378.801.594 1.71.594 2.67-.054 5.235-4.316 8.333-6.151 9.722l-.594.427L12.5 21l-.216-.214ZM12.5 5.457c-.648 0-1.295.16-1.889.374A5.735 5.735 0 0 0 8.94 6.953c-.486.48-.81.96-1.08 1.495-.215.534-.323 1.122-.377 1.763.054 3.899 3.4 6.41 5.018 7.638 1.619-1.229 4.964-3.74 5.018-7.638a6.04 6.04 0 0 0-.432-1.763c-.215-.534-.54-1.015-1.079-1.495a4.077 4.077 0 0 0-1.619-1.069 4.639 4.639 0 0 0-1.888-.427Z"
			fill="currentColor"></path>
	</symbol>
	<symbol fill="none" xmlns="http://www.w3.org/2000/svg" viewBox="0 0 24 24" id="heart">
		<path
			d="M12 20a1 1 0 0 1-.7-.3l-2-1.7a38 38 0 0 1-4.5-4.2A6.7 6.7 0 0 1 3 9.4c0-1.5.5-2.8 1.4-3.8C5.4 4.6 6.6 4 8 4c1 0 2 .3 2.9 1 .4.3.8.7 1.1 1.2.3-.5.7-.9 1.1-1.2a4.8 4.8 0 0 1 6.4.6c1 1 1.5 2.3 1.5 3.8s-.6 3-1.8 4.4a38 38 0 0 1-4.5 4.2l-2 1.7a1 1 0 0 1-.7.3ZM8 5c-1 0-2 .5-2.8 1.3-.7.8-1.1 1.9-1.1 3.1 0 1.3.4 2.4 1.5 3.7 1 1.3 2.6 2.6 4.3 4L12 19l2-1.8c1.8-1.5 3.4-2.8 4.4-4 1-1.4 1.5-2.5 1.5-3.8 0-1.2-.4-2.3-1.1-3.1A3.8 3.8 0 0 0 16 5c-.8 0-1.6.3-2.2.8-.6.5-1 1-1.2 1.4-.1.2-.4.3-.6.3a.7.7 0 0 1-.6-.3c-.2-.4-.6-1-1.2-1.4C9.6 5.3 8.8 5 8 5Z"
			fill="currentColor"></path>
	</symbol>

	<symbol xmlns="http://www.w3.org/2000/svg" viewBox="0 0 24 24" id="cart">
		<path
			d="M8 17a2 2 0 110 4 2 2 0 010-4zm11 0a2 2 0 110 4 2 2 0 010-4zM4.21 2a3 3 0 012.895 2.213L7.59 6H20a1 1 0 011 1v4.33a3 3 0 01-2.463 2.952l-9.358 1.702a1 1 0 01-1.144-.722L5.175 4.738A1 1 0 004.21 4H3a1 1 0 110-2h1.21zM19 8H8.134l1.59 5.852 8.455-1.538a1 1 0 00.821-.983V8z"
			fill="currentColor" fill-rule="evenodd" />
	</symbol>

	<symbol xmlns="http://www.w3.org/2000/svg" viewBox="0 0 24 24" id="love">
		<path
			d="M15.789 4c1.397 0 2.733.595 3.71 1.645C20.461 6.68 21 8.075 21 9.527c0 1.45-.538 2.846-1.554 3.933l-6.766 6.273a1 1 0 01-1.36 0L4.5 13.408c-2.001-2.151-2.001-5.612 0-7.763 2.04-2.193 5.38-2.193 7.42 0L12 5.73l.079-.085C13.056 4.595 14.39 4 15.789 4zm0 2c-.836 0-1.643.36-2.246 1.007l-.811.872a1 1 0 01-1.464 0l-.812-.872c-1.249-1.342-3.242-1.342-4.49 0-1.288 1.384-1.288 3.655-.053 4.987L12 17.637l6.034-5.591c.616-.662.966-1.57.966-2.52s-.35-1.857-.966-2.519C17.432 6.36 16.624 6 15.79 6z"
			fill="currentColor" fill-rule="evenodd" />
	</symbol>
</svg>