<svg width="24" height="24" fill="none" xmlns="http://www.w3.org/2000/svg">
	<path
		d="M4.003 17.43c0 .457 0 1.001.118 1.437.142.468.615.631 1.159.86.58.228.84.348 1.501.544 1.455.457 3.122.696 4.813.729h.863c1.655-.033 3.286-.272 4.705-.707.615-.196 1.81-.62 2.377-.958a.627.627 0 0 0 .307-.36c.142-.457.154-1.055.154-1.545 0-1.546-.532-2.59-1.785-2.993-.568-.174-.757-.185-1.395-.436-.568-.217-1.147-.5-1.656-.805-.2-.109-.295-.196-.52-.196-.355 0-.52.218-.52.544 0 .272.354.436.555.544.414.218 1.03.545 1.478.719.166.065.237.109.414.163l.426.152c1.076.381 1.939.196 1.939 2.471 0 1.176-.06.969-.875 1.328-.13.065-.236.098-.39.152a17.36 17.36 0 0 1-11.824-.195c-.118-.055-.236-.087-.354-.153-.154-.065-.178-.109-.355-.152 0-.686-.296-1.883.307-2.721.166-.229.343-.36.639-.468.59-.207.827-.207 1.702-.555l.793-.349 1.064-.598c.449-.283.165-.871-.213-.871-.284 0-.296 0-.568.174-.657.383-1.354.704-2.08.958-.852.305-1.798.348-2.354 1.35a3.968 3.968 0 0 0-.425 1.937Z"
		fill="currentColor" />
	<path fill-rule="evenodd" clip-rule="evenodd"
		d="M12 11.941c-.582 0-1.024-.128-1.419-.35-1.79-.992-1.93-5.112-.907-6.467 1.175-1.564 3.686-1.319 4.65 0 .383.6.593 1.296.605 2.008.035.77.059.747-.046 1.623a4.695 4.695 0 0 1-.628 1.984 2.365 2.365 0 0 1-.86.864 2.783 2.783 0 0 1-1.396.35v-.012ZM11.766 3h.488c.582.035 1.14.175 1.628.42.465.234.895.56 1.21.97.336.454.534.863.697 1.47a8.67 8.67 0 0 1-.035 3.945c-.29 1.156-.814 2.066-1.79 2.685a4.057 4.057 0 0 1-3.896.023C8.442 11.544 8 9.502 8 7.704c0-.654.07-1.4.22-1.914a4.76 4.76 0 0 1 .478-1.11c.372-.548.779-.933 1.395-1.248A4.288 4.288 0 0 1 11.767 3Z"
		fill="currentColor" />
</svg>