<svg width="24" height="24" fill="none" xmlns="http://www.w3.org/2000/svg">
	<path
		d="M9.3 14.5c-.8.5-2 1-3.1 1.3a2 2 0 0 0-1.3 1c-.4.4-.4 1-.4 2.4 0 .6.2.7.6.9 3 1.8 9.8 1.9 13.6 0 .6-.2.8-.2.8-.9 0-.6 0-1.4-.2-2a2 2 0 0 0-1.2-1.3c-.6-.2-1.8-.4-3.5-1.4"
		stroke="currentColor" stroke-width="2" stroke-linecap="round" stroke-linejoin="round" />
	<path
		d="M15.5 7c0 .8-.3 2.3-.7 2.8-.7 1-1.3 1.7-2.8 1.7-1.5 0-2-.6-2.7-1.5-.4-.5-.8-2.3-.8-3 0-2.6 1-4.5 3.5-4.5 2.6 0 3.5 2 3.5 4.4Z"
		stroke="currentColor" stroke-width="2" />
</svg>