<svg width="24" height="24" fill="none" xmlns="http://www.w3.org/2000/svg">
	<path
		d="M20.904 16.03c-.022-.043-.04-.082-.059-.111-.314-.548-.91-1.222-1.791-2.018l-.019-.018-.01-.01-.008-.008h-.011a11.29 11.29 0 0 1-.759-.75c-.192-.24-.237-.49-.13-.738.075-.187.356-.587.844-1.196.256-.32.46-.58.607-.775 1.08-1.402 1.55-2.295 1.407-2.68l-.056-.094c-.037-.054-.133-.105-.289-.152a1.6 1.6 0 0 0-.6-.021l-2.7.018a.418.418 0 0 0-.19.003 3.367 3.367 0 0 0-.122.03l-.044.02-.037.03a.363.363 0 0 0-.104.097.611.611 0 0 0-.096.158c-.292.735-.625 1.42-.999 2.05-.233.383-.444.707-.64.984a4.63 4.63 0 0 1-.485.61 3.247 3.247 0 0 1-.359.316c-.107.08-.189.112-.24.101-.056-.014-.112-.025-.163-.04a.575.575 0 0 1-.208-.22.971.971 0 0 1-.11-.356 4.408 4.408 0 0 1-.026-.807c.007-.191.007-.317.007-.382 0-.234.007-.483.015-.753.007-.274.018-.49.022-.645.007-.159.011-.324.011-.5 0-.177-.011-.318-.033-.419a1.556 1.556 0 0 0-.097-.288.552.552 0 0 0-.192-.224 1.259 1.259 0 0 0-.315-.122 6.593 6.593 0 0 0-1.269-.119c-1.158-.01-1.906.061-2.239.22-.13.068-.248.158-.355.274-.111.133-.126.209-.045.22.374.054.64.187.796.392l.056.108c.044.08.088.22.133.422.04.198.07.421.081.663.034.447.034.829 0 1.142-.03.317-.059.562-.089.739a1.502 1.502 0 0 1-.24.63.14.14 0 0 1-.045.047.755.755 0 0 1-.251.043c-.089 0-.196-.043-.318-.126a2.435 2.435 0 0 1-.393-.353 4.565 4.565 0 0 1-.451-.623c-.17-.27-.344-.584-.526-.951l-.151-.263c-.093-.17-.219-.418-.382-.743-.162-.328-.31-.641-.433-.947a.604.604 0 0 0-.225-.289l-.045-.028a.787.787 0 0 0-.152-.08 1.077 1.077 0 0 0-.218-.057L3.6 7.459c-.263 0-.44.057-.537.173l-.037.054A.303.303 0 0 0 3 7.833c0 .069.018.148.056.245.373.858.784 1.687 1.22 2.483.441.796.826 1.438 1.152 1.924.325.487.655.948.992 1.38.336.433.558.71.67.829.11.122.195.212.258.274l.234.22c.148.144.37.32.662.526.289.201.61.403.966.601.351.195.762.36 1.232.483a4.29 4.29 0 0 0 1.366.152h1.077c.222-.018.385-.087.5-.202l.036-.044a.797.797 0 0 0 .07-.169.907.907 0 0 0 .034-.252 2.798 2.798 0 0 1 .06-.706c.047-.21.1-.368.158-.476.063-.108.126-.198.2-.27.078-.072.13-.115.163-.133.03-.015.056-.022.074-.03.148-.05.326-.003.53.141.203.144.391.32.573.53.177.209.388.447.64.706a4.2 4.2 0 0 0 .659.584l.185.108c.126.076.288.14.488.205.196.058.374.072.522.044l2.402-.036c.237 0 .422-.04.551-.116.133-.075.211-.158.237-.248a.739.739 0 0 0 .004-.314 1.167 1.167 0 0 0-.067-.241Z"
		fill="currentColor" />
</svg>